<?xml version="1.0" encoding="UTF-8"?>
<svg id="Camada_1" data-name="Camada 1" xmlns="http://www.w3.org/2000/svg" viewBox="0 0 100 100">
  <defs>
    <style>
      .cls-1 {
        fill: #030349;
        stroke-width: 0px;
      }
    </style>
  </defs>
  <path class="cls-1" d="M88.63,9c.18.09.36.19.55.27,1.53.66,2.48,1.79,2.5,3.47.06,3.64.06,7.28,0,10.92-.03,2-1.48,3.48-3.47,3.74-.24.03-.48.08-.71.04-2.37-.35-4.34.48-6.28,1.81-2.91,1.99-5.97,3.78-8.96,5.65-.2.12-.41.23-.76.44.45-2.68.89-5.23,1.34-7.89-1,0-1.95,0-2.89,0-3.01,0-4.58-1.56-4.58-4.55,0-2.98.07-5.95-.02-8.93-.08-2.45.8-4.16,3.19-4.97,6.7,0,13.4,0,20.1,0ZM75.09,30.02c1.81-1.13,3.53-2.04,5.07-3.2,2.16-1.64,4.47-2.35,7.17-2.05,1.32.15,1.77-.4,1.77-1.73,0-3.21,0-6.43,0-9.64,0-1.33-.43-1.75-1.77-1.75-4.83,0-9.67,0-14.5,0-1.14,0-2.29-.02-3.43.01-.87.02-1.35.49-1.35,1.34-.02,3.48-.02,6.96,0,10.44,0,.88.51,1.35,1.42,1.36,1.89.01,3.77,0,5.66,0,.26,0,.52,0,.85,0-.29,1.73-.56,3.38-.87,5.23Z"/>
  <path class="cls-1" d="M44.53,63.17c-.31-.41-.45-.75-.7-.91-2.97-1.97-4.89-4.66-5.77-8.11-.06-.23-.3-.49-.52-.58-2.58-1.01-3.77-2.71-3.77-5.48,0-2.87,0-5.74,0-8.61.02-8.44,5.7-15.36,13.96-17.02,9.69-1.95,19.43,5.3,20.15,15.12.25,3.44.12,6.9.14,10.36.02,2.29.01,4.57,0,6.86-.01,2.58-1.68,4.32-4.24,4.22-1.55-.06-2.79.16-3.77,1.53-.51.7-1.4,1.13-2.08,1.71-.23.2-.37.51-.65.91,2.31.42,4.36.79,6.42,1.17,1.17.22,2.37.38,3.51.71,2.58.75,4.64,2.31,5.64,4.79,1.34,3.31,2.38,6.74,3.6,10.24h-28.32c.84.71,1.49,1.26,2.16,1.82-.33.34-.44.48-.58.6-2.1,1.92-4.19,3.85-6.3,5.76-3.53,3.19-8.88,3.25-12.32-.04-4.2-4.03-8.26-8.2-12.38-12.31-1.84-1.84-3.69-3.68-5.53-5.52-3.94-3.96-3.96-9.54-.03-13.5,1.87-1.89,3.74-3.77,5.63-5.66.17.16.29.26.4.37,3.1,3.1,6.21,6.2,9.38,9.36-.2.21-.36.4-.54.58-1.46,1.47-2.94,2.93-4.4,4.4-.84.84-.85,1.51-.04,2.33,1.38,1.4,2.77,2.78,4.25,4.26.24-.66.42-1.23.64-1.79,1.28-3.28,3.65-5.28,7.11-5.94,2.87-.55,5.74-1.06,8.93-1.64ZM40.42,72.35c1.56,1.57,3.07,3.06,4.55,4.58.38.39.77.55,1.32.55,8.53-.02,17.06-.01,25.59-.01.26,0,.52,0,.89,0-.65-1.95-1.23-3.8-1.87-5.62-.89-2.52-2.68-4.01-5.32-4.49-2.22-.4-4.47-.69-6.65-1.26-1.69-.44-2.86-.13-3.99,1.23-1.21,1.46-2.67,2.72-4.04,4.09-.24-.23-.44-.41-.63-.59-1.56-1.56-3.11-3.13-4.69-4.66-.22-.21-.66-.37-.95-.32-2.88.49-5.75.99-8.62,1.55-2.49.49-4.19,1.95-5.08,4.34-.29.77-.51,1.56-.79,2.33-.15.4-.11.67.22.98.74.69,1.43,1.42,2.15,2.13.95.94,1.51.95,2.51.04,1.77-1.6,3.55-3.2,5.39-4.87ZM65.22,43.85c0-2.22.24-4.45-.04-6.61-.89-6.87-6.63-12.05-13.51-12.42-6.83-.37-13.1,4.13-14.74,10.83-.5,2.05-.37,4.26-.51,6.4-.04.59,0,1.19,0,1.87.53-.22.91-.37,1.33-.55v-1.44c2.54.06,4.96-.24,7.27-1.27,2.32-1.04,4.15-2.71,5.91-4.6,3.46,4.1,7.76,6.16,13.14,5.84v1.5c.45.17.84.32,1.16.45ZM50.9,39.84c-2.9,2.65-6.2,4.22-10.03,4.6-.47.05-.53.3-.53.7.01,2.05-.06,4.09.02,6.14.16,4.2,2.09,7.39,5.85,9.27,3.68,1.84,7.3,1.47,10.72-.8.25-.16.46-.37.69-.55-.03-.05-.05-.11-.08-.16h-6.6v-2.64h.93c2.5,0,5-.01,7.49.01.5,0,.8-.14.97-.6.27-.77.75-1.53.8-2.32.17-2.86.22-5.72.26-8.59,0-.15-.41-.39-.66-.45-1-.24-2.04-.37-3.03-.65-2.57-.73-4.8-2.1-6.81-3.95ZM42.51,85.49c-2.02-2.04-4-4.04-5.98-6.04-2.12,1.6-4.01,1.47-5.91-.43-2.91-2.91-5.82-5.82-8.74-8.73-1.89-1.89-2.02-3.73-.43-5.88.03-.04.01-.1,0,.04-2.06-2.08-4.04-4.06-6.02-6.05-3.36,3.06-3.46,7.07-.2,10.33,5.73,5.73,11.46,11.46,17.19,17.19,3.03,3.02,7.39,2.8,10.08-.42ZM44.76,83.52c.5-.48,1.03-.98,1.48-1.4-2.03-2.04-3.99-4.02-6.01-6.04-.51.46-1.05.95-1.54,1.4,2.03,2.02,4.02,4,6.07,6.04ZM24.78,61.08c-2.02-2.02-3.99-4.01-5.94-5.97-.44.4-.92.84-1.31,1.2,2.04,2.04,4.02,4.02,6.02,6.02.37-.38.8-.81,1.23-1.25ZM47.35,63.94c1.16,1.16,2.41,2.39,3.56,3.53,1.19-1.19,2.44-2.43,3.55-3.55-1.04.12-2.27.37-3.5.37-1.25,0-2.5-.24-3.61-.36ZM63.07,56.32c2.17.41,2.61-.62,2.14-3.2-.49.26-1.18.4-1.39.79-.39.72-.51,1.6-.74,2.41ZM37.69,50.71v-4.38c-.89.52-1.25,1.26-1.26,2.18,0,.93.37,1.66,1.26,2.21ZM64.1,50.74c1.04-.73,1.4-1.61,1.23-2.69-.12-.74-.5-1.32-1.23-1.75v4.45Z"/>
  <path class="cls-1" d="M61.8,14.66c-.26.82-.5,1.6-.75,2.39-11.32-3.07-21.75-1.38-31.1,5.73-6.23,4.74-10.23,11.03-12.29,18.83,1.3-.77,2.42-1.43,3.58-2.12.45.76.87,1.46,1.35,2.24-2.58,1.55-5.11,3.07-7.71,4.63-1.54-2.57-3.06-5.09-4.62-7.7.73-.44,1.44-.88,2.24-1.37.82,1.35,1.61,2.67,2.47,4.08,5.29-22.16,28.21-32.92,46.83-26.73Z"/>
  <path class="cls-1" d="M83.35,38.71c-.84,1.39-1.57,2.59-2.34,3.87-.75-.44-1.47-.87-2.26-1.33,1.55-2.58,3.07-5.12,4.62-7.71,2.58,1.54,5.09,3.06,7.71,4.62-.46.76-.9,1.5-1.35,2.26-1.28-.76-2.48-1.48-3.79-2.26,3.77,12.74,1.65,24.32-6.34,34.91-.72-.58-1.36-1.09-2.05-1.64,7.44-9.85,9.42-20.67,5.8-32.72Z"/>
  <path class="cls-1" d="M70.66,16.82v-2.49h15.72v2.49h-15.72Z"/>
  <path class="cls-1" d="M70.68,22.12v-2.54h10.43v2.54h-10.43Z"/>
  <path class="cls-1" d="M86.4,22.13h-2.54v-2.54h2.54v2.54Z"/>
</svg>