<?xml version="1.0" encoding="UTF-8"?>
<svg id="Camada_1" data-name="Camada 1" xmlns="http://www.w3.org/2000/svg" viewBox="0 0 100 100">
  <defs>
    <style>
      .cls-1 {
        fill: #030349;
        stroke-width: 0px;
      }
    </style>
  </defs>
  <path class="cls-1" d="M92.38,70.83c-.84,1.06-1.46,1.1-2.42.14-2.39-2.38-4.77-4.77-7.16-7.15-.19-.19-.39-.37-.5-.47-1.6,1.23-3.14,2.44-4.73,3.6-.64.46-1.4.75-2.07,1.17-.78.49-1.55,1-2.26,1.57-.7.56-1.37.65-1.89.12-.53-.54-.48-1.22.15-1.88.75-.8,1.57-1.46,2.61-1.92,4.54-2.02,7.68-5.46,9.73-9.93,1.77-3.86,3.46-7.75,5.71-11.36.6-.97.4-1.64-.49-2.15-.9-.53-1.57-.33-2.17.69-1.06,1.79-2.09,3.6-3.13,5.4-.31.53-.69.94-1.35.89-.95-.08-1.39-1.06-.86-2,1.15-2.02,2.32-4.03,3.49-6.05.15-.26.31-.52.45-.78.56-1.04.4-1.7-.52-2.22-.89-.5-1.52-.32-2.11.67-1.04,1.77-2.04,3.56-3.1,5.32-.2.33-.54.75-.86.79-.42.05-1.1-.1-1.27-.4-.22-.39-.24-1.09-.03-1.49,1.06-1.98,2.22-3.9,3.34-5.85.18-.31.37-.61.53-.93.52-1,.36-1.64-.53-2.15-.91-.52-1.52-.36-2.11.63-1.02,1.72-2,3.46-3.01,5.19-.33.56-.85.89-1.44.6-.38-.18-.73-.64-.86-1.05-.09-.29.15-.73.34-1.05,1.17-2.07,2.38-4.13,3.55-6.2.6-1.07.36-1.79-.71-2.26-.81-.36-1.33-.17-1.92.72-1.86,2.81-3.72,5.62-5.6,8.42-1.91,2.86-4.46,4.95-7.62,6.29-.18.07-.35.15-.53.21-.75.24-1.39,0-1.66-.63-.29-.66,0-1.3.76-1.66.9-.43,1.8-.86,2.77-1.33-.18-.22-.26-.33-.35-.42-.64-.68-1.28-1.35-1.92-2.02-1.05.62-1.89,1.26-2.38,2.31-.67,1.43-1.42,2.83-2.11,4.25-.31.64-.92.96-1.54.75-.64-.22-.96-.81-.8-1.5.1-.42.25-.83.43-1.4-3.07,1.7-6.05,3.43-9.82,1.71,1.76,3.17,3.49,6.15,1.76,9.93,3.17-1.79,6.16-3.48,9.88-1.8-.5-.95-.93-1.72-1.32-2.51-.44-.88-.29-1.58.38-1.93.71-.37,1.31-.02,1.85.82,1.89,2.95,3.83,5.87,5.77,8.77.77,1.15.78,1.49-.2,2.47-.96.96-1.93,1.93-3.02,3.01,1.05.83,1.99,1.67,3.02,2.37,2.74,1.87,5.51,3.68,8.28,5.51,3.2,2.11,1.78,5.81-.38,6.97-.49.26-1.08.35-1.73.56-.46,2.07-1.52,3.73-3.98,3.96-.25.65-.42,1.31-.74,1.9-.61,1.14-1.55,1.89-2.88,2.09-.23.04-.56.32-.61.55-.8,3.21-3.4,4.36-6.29,2.75-.21-.12-.43-.24-.68-.38-.25.23-.48.46-.71.68-.63.58-1.3.62-1.82.11-.5-.49-.5-1.11,0-1.77.07-.09.14-.16.36-.41-2.12-.97-4.18-1.88-6.21-2.86-2.04-.99-4.04-2.05-6.27-3.2-.32.37-.72.89-1.18,1.35-2.24,2.26-4.49,4.51-6.75,6.75-.64.63-1.36.66-1.88.12-.52-.54-.46-1.22.17-1.88.15-.16.31-.31.46-.47,2.25-2.25,4.5-4.5,6.75-6.74.21-.21.46-.39.73-.61-.76-.85-1.53-1.55-2.11-2.39-1.02-1.45-1.91-3-2.88-4.48-.5-.77-1-1.55-1.6-2.23-.81-.92-1.72-1.76-2.64-2.69-1.13,1.75-2.62,2.67-4.68,1.98-1.76-.58-2.86-1.77-2.99-3.75-2.23-.46-3.84-1.57-4.06-3.93-.81-.36-1.58-.64-2.28-1.04-.83-.48-1.49-1.24-1.59-2.19-.09-.83-.48-1.01-1.17-1.22-2.75-.83-3.74-3.34-2.39-5.86.16-.29.32-.57.52-.94-.21-.22-.43-.45-.64-.68-.6-.64-.66-1.29-.18-1.82.49-.54,1.14-.55,1.83-.02.08.06.16.14.36.3.6-1.22,1.18-2.38,1.74-3.56.27-.58.68-.94,1.34-.87.85.09,1.32.94.94,1.8-.51,1.15-1.08,2.28-1.67,3.38-.66,1.23-1.4,2.42-2.08,3.64-.53.96-.35,1.57.51,2.08.89.53,1.55.37,2.13-.59.68-1.12,1.32-2.27,1.98-3.41.37-.64.74-1.28,1.11-1.92.59-1.01,1.25-1.31,1.96-.88.69.41.76,1.12.2,2.09-1.18,2.04-2.36,4.08-3.54,6.12-.14.24-.28.47-.39.72-.4.86-.2,1.45.63,1.93.83.48,1.48.38,1.98-.43,1.01-1.66,1.97-3.35,2.95-5.03.15-.26.29-.53.45-.78.42-.62,1.13-.8,1.71-.45.56.33.75,1,.42,1.66-.28.56-.62,1.1-.93,1.64-1.01,1.75-2.04,3.5-3.04,5.27-.53.94-.41,1.55.35,2.07.92.63,1.64.52,2.22-.43.96-1.59,1.88-3.22,2.81-4.83.11-.19.21-.39.34-.56.41-.58,1.09-.75,1.66-.42.56.33.75,1,.46,1.65-.09.2-.21.38-.32.57-1.12,1.94-2.25,3.88-3.37,5.83-.65,1.13-.53,1.77.38,2.31.92.55,1.53.34,2.23-.71,1.88-2.83,3.75-5.67,5.65-8.48,1.88-2.77,4.39-4.79,7.47-6.1.23-.1.46-.19.69-.26.7-.19,1.32.1,1.55.71.23.61-.04,1.26-.68,1.57-.93.45-1.87.88-2.82,1.33.85.82,1.61,1.56,2.43,2.36.72-.48,1.57-.97,2.05-1.95.49-1.01,1.1-1.96,1.65-2.93.82-1.46,1.02-3.03.24-4.49-1.26-2.36-2.66-4.65-4.07-6.92-.68-1.09-1.5-2.09-2.26-3.13-.67-.93-.64-1.39.19-2.21.99-.99,1.99-1.96,3.07-3.03-2.56-2.64-5.84-4.2-8.76-6.42-1.07,1.08-2.13,2.1-3.14,3.17-.82.86-1.73,1.53-2.84,2.03-4.04,1.84-7,4.83-9.01,8.77-.12.24-.24.49-.38.73-.42.72-1.1.94-1.74.58-.6-.33-.82-1.01-.45-1.7.65-1.23,1.36-2.43,2.1-3.74-.15-.16-.34-.38-.55-.59-2.48-2.48-4.96-4.97-7.44-7.44-.46-.45-.78-.93-.48-1.6.37-.84,1.32-1.01,2.04-.32,1.16,1.12,2.3,2.28,3.44,3.42,1.51,1.51,3.02,3.03,4.55,4.57.8-.72,1.51-1.49,2.35-2.08,1.38-.98,2.8-1.92,4.29-2.73.98-.53,1.87-1.09,2.63-1.91.78-.84,1.63-1.61,2.52-2.47-1.77-1.13-2.68-2.59-2.04-4.62.57-1.79,1.75-2.94,3.77-3.06.47-2.22,1.56-3.85,3.76-4.04.65-1.1,1.1-2.14,1.81-2.95.46-.52,1.32-.69,1.99-1.03.23-.12.59-.26.63-.45.39-1.82,1.43-3.03,3.19-3.63.49,0,.99,0,1.48,0,.78.36,1.55.73,2.34,1.1.42-.36.85-.73,1.28-1.1.27,0,.55,0,.82,0,.27.39.7.76.75,1.18.05.41-.3.86-.49,1.33.1.07.23.17.37.24,2.5,1.17,5,2.34,7.51,3.51,5.22,2.43,9.13,6.16,11.43,11.49.08.17.15.36.28.49,1.19,1.2,2.39,2.39,3.63,3.64,1.07-1.69,2.49-2.6,4.46-2.04,1.87.53,3.06,1.75,3.21,3.82,2.24.46,3.84,1.58,4.06,4.04,2.09.49,3.71,1.43,4,3.78.02.15.26.35.42.38,1.83.36,3.03,1.43,3.64,3.17v1.48c-.37.78-.73,1.55-1.1,2.34.37.42.73.85,1.1,1.28v.82c-.39.27-.76.7-1.17.75-.41.05-.86-.3-1.38-.51-1.94,4-3.9,8.05-5.93,12.23,1.13,1.13,2.43,2.42,3.72,3.72,1.59,1.61,3.18,3.24,4.76,4.86v.82ZM40.18,39.91c.54.97,1.27,1.79,2.34,2.28.5.23.98.5,1.42.82,2.44,1.75,4.94,1.64,7.37.08,2.79-1.78,5.52-3.67,8.26-5.53,1-.68,1.43-.68,2.28.17,1,1,1.98,2.02,3.02,3.09,2.64-2.69,4.27-5.91,6.4-8.81-1.36-1.36-2.65-2.62-3.91-3.92-.37-.38-.64-.87-.92-1.33-.98-1.61-1.83-3.32-2.96-4.81-2.26-3-5.53-4.65-8.85-6.22-3.01-1.43-5.97-2.98-8.95-4.48-.39-.2-.76-.43-1.16-.62-.67-.32-1.22-.13-1.66.45-.72.96-.56,1.73.53,2.38,1.86,1.1,3.75,2.16,5.61,3.26.72.43.9,1.13.52,1.75-.35.58-1.03.74-1.73.39-.34-.17-.67-.38-1-.57-1.99-1.15-3.98-2.31-5.98-3.44-.98-.55-1.64-.36-2.15.52-.52.9-.34,1.5.64,2.12.23.15.47.27.71.41,1.61.93,3.23,1.85,4.83,2.8.69.41.88,1.15.51,1.76-.35.58-1.03.72-1.73.37-.24-.12-.48-.27-.72-.4-2.06-1.19-4.12-2.39-6.2-3.56-.94-.53-1.57-.34-2.08.53-.52.89-.37,1.48.53,2.08.27.18.56.34.85.5,1.47.85,2.94,1.7,4.41,2.55.56.32.9.84.62,1.43-.18.38-.63.74-1.04.88-.28.1-.73-.14-1.05-.32-2.1-1.19-4.17-2.41-6.27-3.59-1.05-.59-1.87-.25-2.27.87-.27.76-.05,1.23.84,1.82,2.88,1.91,5.76,3.8,8.62,5.74,2.84,1.93,4.88,4.53,6.15,7.73.38.96.16,1.66-.58,1.93-.71.26-1.3-.1-1.7-.99-.38-.84-.8-1.66-1.21-2.5-.82.84-1.57,1.6-2.35,2.39ZM29.26,68.19c1.34,1.33,2.62,2.57,3.85,3.86.41.42.7.96,1.01,1.46.94,1.54,1.75,3.17,2.82,4.61,2.21,2.97,5.38,4.66,8.65,6.21,3.09,1.47,6.12,3.05,9.17,4.58.37.18.71.42,1.07.6.86.41,1.47.22,1.95-.58.5-.83.36-1.49-.44-2.05-.25-.17-.51-.31-.78-.46-1.64-.95-3.28-1.88-4.91-2.84-.83-.49-1.06-1.17-.67-1.83.38-.63,1.07-.75,1.87-.32.19.1.38.22.57.33,2.09,1.2,4.17,2.42,6.27,3.61.96.54,1.6.38,2.11-.45.58-.94.41-1.6-.66-2.23-1.82-1.07-3.66-2.1-5.47-3.17-.7-.41-.88-1.14-.52-1.75.35-.58,1.02-.73,1.73-.38.24.12.48.27.72.4,2.09,1.2,4.17,2.42,6.27,3.59.88.49,1.52.27,2.01-.56.52-.89.37-1.51-.52-2.08-.21-.13-.43-.25-.64-.37-1.54-.89-3.08-1.78-4.62-2.67-.52-.3-.89-.78-.65-1.35.16-.39.58-.8.97-.95.3-.11.79.11,1.13.3,2.1,1.18,4.17,2.41,6.27,3.59,1.06.59,1.87.26,2.28-.86.28-.76.06-1.23-.83-1.82-2.81-1.86-5.62-3.72-8.42-5.6-2.93-1.97-5.05-4.59-6.36-7.87-.38-.96-.17-1.66.57-1.94.71-.27,1.3.09,1.71.98.38.84.8,1.67,1.19,2.48.84-.83,1.61-1.58,2.38-2.34-.55-1.01-1.31-1.84-2.41-2.34-.55-.25-1.07-.56-1.56-.9-2.2-1.52-4.44-1.48-6.73-.22-.26.15-.55.26-.79.43-2.65,1.79-5.31,3.58-7.95,5.39-.92.63-1.38.62-2.16-.15-1.02-1.02-2.04-2.05-3.11-3.13-2.59,2.64-4.2,5.85-6.37,8.78Z"/>
  <path class="cls-1" d="M70.99,8c1.06.84,1.1,1.46.14,2.42-1.7,1.71-3.41,3.41-5.12,5.12-.14.14-.27.28-.42.39-.56.42-1.12.42-1.64-.06-.5-.46-.55-1.18-.04-1.69,2.07-2.08,4.16-4.12,6.25-6.18.27,0,.55,0,.82,0Z"/>
</svg>