<?xml version="1.0" encoding="UTF-8"?>
<svg id="Camada_1" data-name="Camada 1" xmlns="http://www.w3.org/2000/svg" viewBox="0 0 100 100">
  <defs>
    <style>
      .cls-1 {
        fill: #030349;
        stroke-width: 0px;
      }
    </style>
  </defs>
  <path class="cls-1" d="M64.69,74.48c-2.04,3.54-4.66,6.44-7.86,8.77-1.83,1.33-3.81,2.46-5.72,3.69-.57.37-1.1.31-1.69-.01-5.48-2.98-10.23-6.76-13.45-12.23-.03-.05-.07-.08-.17-.17-2.04,1.42-4.11.92-6.21.03-1.74-.74-3.51-1.38-5.27-2.07-.46-.18-.92-.37-1.35-.6-2.78-1.46-3.8-3.75-2.99-6.78.2-.74.47-1.46.79-2.15,2.31-4.81,4.64-9.62,6.97-14.41.37-.76.82-1.49,1.25-2.21,2.21-3.68,5.51-5.45,9.77-5.45,7.67-.02,15.35-.01,23.02,0,.92,0,1.85.15,2.77.31,2.46.44,4.47,1.69,5.92,3.68.99,1.36,1.88,2.83,2.64,4.34,2.23,4.46,4.37,8.95,6.53,13.44.31.64.58,1.3.79,1.98,1.09,3.43-.09,6.07-3.4,7.5-2.19.94-4.44,1.73-6.64,2.63-1.93.79-3.81,1-5.72-.29ZM50.32,42.99s0,.02,0,.03c-4.06,0-8.11-.05-12.17.02-2.9.05-5.23,1.3-6.86,3.73-.62.93-1.22,1.89-1.71,2.9-2.28,4.64-4.54,9.3-6.78,13.96-.31.64-.58,1.31-.76,1.99-.58,2.14.05,3.61,2.1,4.48,2.57,1.09,5.18,2.08,7.8,3.04,1.46.53,2.78-.05,3.56-1.41,1.17-2.03.5-4.25-1.66-5.22-1.85-.83-3.74-1.56-5.6-2.35-.74-.31-.97-.79-.72-1.41.25-.63.76-.85,1.49-.56,1.98.81,3.97,1.57,5.9,2.48,2.7,1.28,3.95,4.38,2.84,7.15-.34.85-.17,1.41.25,2.1,2.54,4.19,6.12,7.26,10.24,9.8,2.04,1.25,2.04,1.26,4.09,0,4.29-2.63,8-5.85,10.53-10.29.26-.45.28-.81.07-1.29-1.13-2.65-.34-5.72,2.1-7.06,2.14-1.19,4.49-2.01,6.76-2.96.56-.23,1.02.04,1.26.61.23.57.05,1.02-.48,1.32-.19.11-.4.17-.61.25-1.79.75-3.61,1.45-5.37,2.27-1.91.88-2.56,2.8-1.71,4.78.78,1.8,2.33,2.37,4.37,1.59,2.07-.8,4.14-1.6,6.2-2.41,3.33-1.32,4.02-3,2.6-6.3-.15-.35-.32-.7-.49-1.04-.82-1.7-1.63-3.41-2.47-5.1-1.7-3.43-3.35-6.9-5.14-10.28-1.73-3.27-4.55-4.84-8.27-4.82-3.78.03-7.57,0-11.35,0Z"/>
  <path class="cls-1" d="M50.31,12.98c6.96.01,12.63,5.66,12.63,12.58,0,6.94-5.66,12.54-12.65,12.53-7.02,0-12.7-5.65-12.68-12.61.02-6.9,5.72-12.52,12.71-12.51ZM50.28,35.97c5.86,0,10.55-4.65,10.54-10.45-.01-5.74-4.71-10.42-10.5-10.44-5.82-.02-10.59,4.68-10.59,10.43,0,5.79,4.71,10.45,10.55,10.45Z"/>
  <path class="cls-1" d="M48.09,66.49c1.7-1.72,3.3-3.33,4.9-4.94.81-.82,1.61-1.64,2.44-2.44,1.17-1.13,2.54-1.12,3.71,0,.51.5,1.03.98,1.51,1.51.91,1.01.91,2.37-.04,3.33-3.61,3.67-7.24,7.33-10.88,10.97-1.08,1.08-2.14,1.08-3.24,0-2.19-2.15-4.36-4.32-6.51-6.51-1.07-1.09-1.05-2.31,0-3.43.56-.6,1.13-1.2,1.73-1.75,1-.92,2.26-.92,3.24.03,1.04,1.01,2.03,2.07,3.15,3.22ZM56.88,60.41c-.21.31-.35.59-.56.8-2.39,2.41-4.79,4.81-7.2,7.21-.77.77-1.25.76-2.02,0-1.22-1.21-2.44-2.43-3.55-3.54-.73.66-1.43,1.3-2.01,1.83,2.24,2.24,4.45,4.46,6.54,6.55,3.65-3.56,7.37-7.18,11.14-10.86-.75-.64-1.44-1.22-2.34-1.98Z"/>
  <path class="cls-1" d="M68.22,56.86c0,1.01-.01,2.03,0,3.04,0,.69-.31,1.1-1,1.17-.64.06-1.1-.39-1.11-1.14-.03-1.64-.03-3.29,0-4.94,0-.49-.15-.72-.62-.88-4.89-1.68-9.77-3.39-14.66-5.07-.33-.11-.77-.11-1.1,0-4.89,1.68-9.77,3.39-14.66,5.07-.47.16-.64.37-.63.87.03,1.56.02,3.13,0,4.69,0,.9-.38,1.36-1.07,1.36-.7,0-1.06-.45-1.06-1.35,0-1.95.01-3.89,0-5.84,0-.71.3-1.1.96-1.33,5.51-1.9,11.01-3.83,16.52-5.73.31-.1.71-.09,1.02.02,5.49,1.89,10.96,3.8,16.44,5.69.7.24,1,.68.97,1.42-.04.99,0,1.97,0,2.96Z"/>
</svg>