<?xml version="1.0" encoding="UTF-8"?>
<svg id="Camada_1" data-name="Camada 1" xmlns="http://www.w3.org/2000/svg" viewBox="0 0 100 100">
  <defs>
    <style>
      .cls-1 {
        fill: #030349;
        stroke-width: 0px;
      }
    </style>
  </defs>
  <path class="cls-1" d="M40.26,8c2.74,1.14,3.43,2.18,3.43,5.18,0,1.04,0,2.08,0,3.23.37,0,.69,0,1.01,0,5.65,0,11.29.02,16.94-.01,1.55,0,2.8.51,3.89,1.62,2.96,3.01,5.95,5.99,8.95,8.96,1.01,1,1.5,2.16,1.5,3.6-.02,7.13,0,14.25,0,21.38,0,.32,0,.64,0,.85,1.8.44,3.54.73,5.18,1.29,8.28,2.85,13.78,11.3,13.03,19.89-.8,9.15-7.4,16.52-16.22,17.91-7.8,1.23-14.16-1.39-19.07-7.54-.34-.42-.66-.55-1.16-.55-9.15.01-18.31-.04-27.46.04-2.87.02-4.88-1.93-4.84-4.84.1-8.33.03-16.66.03-24.99,0-.32,0-.65,0-1.08-.35,0-.64,0-.93,0-3.12,0-6.25-.08-9.37.02-2.62.09-4.41-.97-5.14-3.48V11.45c.51-1.8,1.66-2.95,3.45-3.45h26.81ZM43.7,19.25c0,.41,0,.74,0,1.07,0,9.34,0,18.69,0,28.03,0,2.82-1.75,4.55-4.57,4.55-3.32,0-6.63,0-9.95,0-.29,0-.58,0-.92,0,0,.41,0,.71,0,1,0,8.33,0,16.66,0,24.99,0,1.7.39,2.09,2.07,2.09,8.49,0,16.99,0,25.48,0h1c-2.72-6.31-2.62-12.45.8-18.31,3.44-5.9,8.75-9.02,15.51-9.73v-22.43c-.11-.03-.16-.05-.22-.05-2.19,0-4.38.02-6.58-.02-2.65-.05-4.34-1.77-4.36-4.42-.01-1.97,0-3.95,0-5.92,0-.29-.03-.58-.04-.87h-18.2ZM91.41,72.61c.03-9.29-7.51-16.87-16.79-16.9-9.27-.03-16.87,7.52-16.9,16.79-.03,9.28,7.52,16.88,16.79,16.9,9.28.03,16.88-7.52,16.9-16.79ZM12.8,30.41c0,5.92,0,11.84,0,17.76,0,1.48.44,1.93,1.89,1.93,8.11,0,16.22,0,24.33,0,1.39,0,1.86-.47,1.86-1.89,0-11.84,0-23.68,0-35.52,0-1.44-.47-1.9-1.94-1.9-8.08,0-16.17,0-24.25,0-1.45,0-1.89.46-1.89,1.93,0,5.89,0,11.78,0,17.68ZM64.75,21.46c0,1.47,0,2.96,0,4.45,0,1.26.47,1.71,1.75,1.73,1.29.01,2.57,0,3.86,0,.2,0,.39-.05.53-.07-2.05-2.04-4.07-4.05-6.14-6.11Z"/>
  <path class="cls-1" d="M43.72,57.14c3.18,0,6.35,0,9.53,0,.65,0,1.19.15,1.5.78.38.77.02,1.66-.81,1.92-.33.1-.7.11-1.05.11-6.13,0-12.27,0-18.4,0-.25,0-.5.01-.74-.02-.8-.11-1.3-.69-1.27-1.45.03-.76.55-1.31,1.39-1.32,1.83-.03,3.67-.01,5.5-.01,1.45,0,2.9,0,4.35,0Z"/>
  <path class="cls-1" d="M58.44,52.91c-2.93,0-5.86,0-8.79,0-1.1,0-1.75-.53-1.75-1.4,0-.87.65-1.4,1.75-1.4,5.86,0,11.72,0,17.57,0,1.1,0,1.72.53,1.69,1.44-.02.87-.61,1.35-1.69,1.36-2.93,0-5.86,0-8.79,0Z"/>
  <path class="cls-1" d="M58.44,36.08c2.96,0,5.91,0,8.87,0,.77,0,1.35.25,1.57,1.03.22.77-.22,1.5-1.01,1.7-.23.06-.49.07-.73.07-5.8,0-11.6,0-17.41,0-.16,0-.33,0-.49-.01-.84-.1-1.38-.72-1.34-1.48.05-.74.6-1.29,1.42-1.3,2.46-.02,4.93-.01,7.39-.01.57,0,1.15,0,1.72,0Z"/>
  <path class="cls-1" d="M58.44,45.88c-2.93,0-5.86.03-8.78-.03-.49,0-1.1-.22-1.44-.56-.66-.66-.27-1.82.63-2.11.3-.1.65-.11.97-.11,5.75,0,11.49,0,17.24,0,.19,0,.39,0,.57.02.81.11,1.31.67,1.29,1.43-.02.77-.53,1.32-1.37,1.34-1.61.04-3.23.02-4.84.02-1.42,0-2.85,0-4.27,0Z"/>
  <path class="cls-1" d="M42.3,66.94c-2.74,0-5.48,0-8.22,0-.92,0-1.45-.4-1.57-1.12-.16-.92.43-1.63,1.45-1.67.93-.04,1.86-.01,2.8-.01,4.41,0,8.83,0,13.24,0,.3,0,.61-.01.9.04.75.13,1.24.73,1.2,1.44-.03.72-.55,1.27-1.32,1.31-.96.04-1.92.02-2.88.02-1.86,0-3.73,0-5.59,0Z"/>
  <path class="cls-1" d="M41.54,73.96c-2.44,0-4.88,0-7.32,0-1.12,0-1.74-.51-1.74-1.4,0-.89.63-1.4,1.74-1.4,4.91,0,9.81,0,14.72,0,1.12,0,1.74.51,1.74,1.4,0,.89-.62,1.4-1.74,1.4-2.47,0-4.93,0-7.4,0Z"/>
  <path class="cls-1" d="M73.16,82.05v-8.2c-2.58-.68-4.4-2.18-5.25-4.68-1.26-3.71.76-7.67,4.49-8.88.42-.14.76-.23.86-.79.12-.62.65-.95,1.28-.96.63,0,1.18.31,1.3.93.12.58.48.69.92.83,2.77.91,4.73,3.52,4.79,6.34.02,1.03-.5,1.69-1.35,1.71-.81.02-1.37-.58-1.45-1.56-.14-1.79-1.14-3.17-2.73-3.69v8.17c.16.06.38.14.61.21,2.91.9,4.89,3.54,4.93,6.57.04,3.1-1.85,5.8-4.76,6.77-.47.16-.86.26-.98.89-.12.61-.69.91-1.32.88-.63-.03-1.13-.39-1.25-1-.1-.46-.34-.59-.73-.71-2.9-.93-4.9-3.52-4.95-6.39-.02-1.02.51-1.69,1.36-1.71.81-.02,1.37.59,1.44,1.56.13,1.79,1.14,3.17,2.8,3.71ZM76.01,81.99c1.67-.4,2.85-2.2,2.75-4.11-.09-1.66-1.4-3.33-2.75-3.51v7.61ZM73.12,63.11c-1.63.47-2.78,2.11-2.76,3.89.02,1.74,1.18,3.35,2.76,3.78v-7.68Z"/>
  <path class="cls-1" d="M26.86,30.46c-2.66,0-5.31,0-7.97,0-2.21,0-3.29-1.08-3.29-3.27,0-3.45,0-6.9,0-10.35,0-2.13,1.11-3.23,3.25-3.23,5.34,0,10.68,0,16.02,0,2.08,0,3.21,1.11,3.21,3.19,0,3.5.01,7.01,0,10.51,0,2.03-1.12,3.14-3.17,3.15-2.68.01-5.37,0-8.05,0ZM18.45,27.57c.23.03.41.07.59.07,5.18,0,10.35,0,15.53.02.62,0,.71-.26.71-.79-.02-3.26,0-6.52-.01-9.78,0-.21-.04-.42-.06-.61h-16.75v11.09Z"/>
  <path class="cls-1" d="M18.42,44.5c.47,0,.93-.02,1.4,0,.83.04,1.36.56,1.39,1.33.03.76-.48,1.4-1.27,1.44-1.01.06-2.03.05-3.04,0-.77-.04-1.32-.72-1.28-1.45.04-.73.61-1.29,1.41-1.32.46-.02.93,0,1.4,0Z"/>
  <path class="cls-1" d="M18.43,38.9c.47,0,.93-.02,1.4,0,.79.04,1.31.53,1.37,1.25.06.76-.42,1.45-1.2,1.5-1.06.07-2.14.07-3.2,0-.73-.05-1.23-.75-1.19-1.44.04-.71.58-1.25,1.34-1.3.49-.03.99,0,1.48,0,0,0,0,0,0,0Z"/>
  <path class="cls-1" d="M26.83,38.9c.49,0,.99-.02,1.48,0,.77.05,1.28.57,1.32,1.3.03.73-.42,1.38-1.17,1.44-1.06.08-2.13.07-3.2,0-.74-.05-1.24-.72-1.21-1.42.03-.74.59-1.29,1.39-1.33.46-.02.93,0,1.4,0,0,0,0,0,0,0Z"/>
  <path class="cls-1" d="M26.89,44.51c.47,0,.93-.02,1.4,0,.78.05,1.29.56,1.34,1.29.05.76-.45,1.43-1.23,1.48-1.04.06-2.08.06-3.12,0-.74-.04-1.25-.7-1.24-1.4.01-.73.58-1.32,1.37-1.36.49-.03.99,0,1.48,0Z"/>
  <path class="cls-1" d="M35.22,47.3c-.47,0-.93.03-1.4,0-.84-.06-1.38-.66-1.35-1.46.03-.76.56-1.3,1.39-1.32.93-.03,1.86-.03,2.79,0,.8.02,1.37.59,1.41,1.32.04.76-.54,1.4-1.36,1.46-.49.04-.98,0-1.48,0Z"/>
  <path class="cls-1" d="M18.45,33.29c.49,0,.99-.03,1.48,0,.74.06,1.24.56,1.27,1.25.04.76-.31,1.36-1.05,1.43-1.14.11-2.29.09-3.43,0-.7-.05-1.15-.75-1.1-1.42.05-.68.55-1.22,1.27-1.28.52-.04,1.04,0,1.56,0Z"/>
  <path class="cls-1" d="M26.82,33.29c.52,0,1.04-.03,1.56,0,.72.06,1.14.49,1.23,1.21.09.71-.3,1.4-1,1.47-1.16.1-2.34.1-3.51,0-.7-.05-1.15-.77-1.05-1.44.11-.73.53-1.2,1.29-1.25.49-.03.98,0,1.48,0,0,0,0,0,0,0Z"/>
  <path class="cls-1" d="M35.27,41.69c-.47,0-.93.03-1.39,0-.86-.06-1.4-.63-1.4-1.42,0-.79.56-1.35,1.42-1.37.93-.02,1.86-.03,2.79,0,.79.03,1.36.61,1.37,1.35.01.7-.49,1.32-1.24,1.41-.51.06-1.04.01-1.56.01,0,0,0,.01,0,.02Z"/>
  <path class="cls-1" d="M35.29,33.29c.49,0,.99-.03,1.48,0,.75.06,1.31.63,1.29,1.34-.02.74-.39,1.32-1.14,1.38-1.11.08-2.24.09-3.35-.02-.74-.07-1.1-.66-1.08-1.42.02-.7.52-1.22,1.25-1.28.52-.04,1.04,0,1.56,0,0,0,0,0,0,0Z"/>
</svg>