<?xml version="1.0" encoding="UTF-8"?>
<svg id="Camada_1" data-name="Camada 1" xmlns="http://www.w3.org/2000/svg" viewBox="0 0 100 100">
  <defs>
    <style>
      .cls-1 {
        fill: #030349;
        stroke-width: 0px;
      }
    </style>
  </defs>
  <path class="cls-1" d="M92.38,65.4c-.39.67-.99,1.02-1.73,1.25-4.1,1.27-8.19,2.58-12.29,3.87-1.93.61-2.41.36-3-1.54-.02-.08-.08-.14-.15-.26-.86.42-1.72.83-2.56,1.27-.16.08-.31.3-.35.48-.77,3.42-1.87,4.53-5.2,5.17-.39,3.05-2.11,4.81-5.24,5.21-.16,1.7-.83,3.15-2.25,4.17-1.43,1.03-3.02,1.2-4.68.8-.93,2.36-2.78,3.94-4.65,5.38-3.01,2.33-7.45.52-8.24-3.21-.07-.32-.12-.64-.19-.98-2.43-.27-4.24-1.44-4.89-3.85-.28-1.03-.64-1.43-1.69-1.69-2.15-.55-3.4-2.1-3.74-4.32-.06-.4-.16-.62-.61-.7-3.5-.64-5.27-3.36-4.47-6.8.02-.11.04-.21.08-.4-.38-.18-.76-.37-1.14-.55-.06.07-.11.1-.12.15-.68,2.1-1.1,2.31-3.24,1.63-4.09-1.3-8.19-2.6-12.28-3.9-1.25-.4-1.56-.82-1.56-2.15,0-9.57,0-19.13,0-28.7,0-1.82,1.16-2.51,2.78-1.67,6.07,3.15,12.15,6.31,18.22,9.46,1.62.84,1.75,1.11,1.38,2.92-.03.13-.04.27-.07.53,1.48-.36,2.89-.71,4.31-1.05,1.65-.4,3.28-.88,4.95-1.2,3.12-.6,6.11-.17,8.91,1.35.41.22.67.19,1.01-.08,2.42-1.89,5.1-2.32,8.06-1.56,4.11,1.06,8.24,2.01,12.49,3.05-.12-.54-.22-1-.32-1.47-.24-1.11.02-1.71,1.02-2.23,6.26-3.26,12.53-6.52,18.8-9.77,1.19-.62,1.82-.41,2.68.81v30.59ZM46.15,48.54c-1.83-.8-3.66-1.03-5.48-.64-3.58.78-7.13,1.7-10.69,2.59-.22.06-.49.36-.54.59-1.12,4.6-2.21,9.2-3.28,13.81-.04.19.15.56.33.67,1.97,1.12,1.98,1.11,3.56-.45.1-.1.19-.19.29-.29,1.58-1.43,3.42-1.83,5.42-1.15,1.97.68,3.16,2.11,3.49,4.19.08.5.22.75.78.82,1.43.16,2.65.84,3.42,2.03.58.89.9,1.95,1.34,2.93,0,.15.19.2.38.23,1.3.17,2.37.79,3.28,1.72,2.14,2.16,4.3,4.31,6.46,6.45.74.73,1.67.88,2.48.47.79-.4,1.28-1.25,1.06-2.11-.14-.52-.47-1.05-.85-1.44-2.73-2.78-5.5-5.51-8.23-8.28-.31-.32-.62-.72-.73-1.14-.2-.73.09-1.35.76-1.74.69-.41,1.41-.29,2.08.38,2.66,2.65,5.31,5.31,7.97,7.96.35.35.69.72,1.08,1.01.81.6,1.94.48,2.63-.23.71-.72.79-1.81.18-2.63-.19-.26-.44-.49-.67-.72-2.63-2.64-5.27-5.27-7.9-7.91-.23-.23-.48-.46-.67-.72-.45-.63-.38-1.5.13-2.05.54-.58,1.42-.7,2.1-.25.25.16.46.39.67.6,2.75,2.75,5.5,5.5,8.26,8.25,1.03,1.03,2.24,1.1,3.12.21.86-.87.8-2.04-.18-3.07-3.38-3.55-6.78-7.09-10.14-10.66-.4-.43-.71-.42-1.2-.23-2.57,1.02-5.15,2-7.72,3-1.29.51-2.59.69-3.94.3-2.31-.68-3.79-2.2-4.23-4.56-.43-2.29.33-4.22,2.16-5.68.96-.77,1.97-1.47,3.01-2.24ZM22.25,67.1c1.67-7.03,3.32-13.94,4.97-20.89-5.26-2.73-10.46-5.43-15.72-8.16v25.65c3.58,1.13,7.12,2.25,10.75,3.4ZM89.09,38.03c-5.35,2.78-10.56,5.48-15.76,8.18,1.67,7.01,3.31,13.91,4.97,20.86.37-.11.66-.18.94-.27,3.02-.96,6.04-1.94,9.07-2.86.6-.18.8-.42.8-1.06-.02-8-.02-15.99-.02-23.99v-.87ZM44.17,55.38c0,1.86,1.75,3.02,3.59,2.33,3.1-1.16,6.18-2.37,9.27-3.56,1.18-.45,1.62-.36,2.48.55,3.23,3.39,6.45,6.79,9.68,10.19.66.69,1.27,1.81,2.03,1.93.8.13,1.76-.69,2.64-1.1.05-.02.1-.06.15-.07.43-.14.49-.4.38-.83-1.05-4.36-2.09-8.72-3.11-13.09-.12-.49-.35-.7-.84-.82-4.65-1.11-9.3-2.25-13.95-3.39-1.58-.38-3.06-.18-4.39.77-2.31,1.66-4.6,3.36-6.89,5.05-.68.5-1.03,1.19-1.04,2.05ZM46.66,79.2c-.18-.93-.59-1.55-1.34-1.9-.8-.37-1.57-.24-2.21.35-.84.78-1.65,1.6-2.45,2.42-.92.96-.95,2.15-.11,3,.83.83,2.06.81,3-.09.79-.76,1.59-1.51,2.31-2.33.36-.41.54-.96.8-1.45ZM47.45,88.94c.24-.11.73-.21,1.05-.5.97-.88,1.91-1.8,2.79-2.78.73-.81.6-2-.17-2.74-.75-.72-1.89-.81-2.68-.1-.97.88-1.9,1.82-2.78,2.78-.56.62-.63,1.39-.26,2.15.37.75,1.01,1.12,2.06,1.19ZM29.37,71.07c.15.93.52,1.57,1.27,1.94.82.4,1.61.29,2.28-.32.84-.78,1.65-1.6,2.45-2.42.92-.95.94-2.15.1-2.99-.83-.83-2.07-.79-3,.11-.77.74-1.54,1.47-2.25,2.27-.36.41-.57.95-.85,1.43ZM41.42,74.02c-.15-.91-.52-1.55-1.28-1.91-.82-.39-1.61-.28-2.27.34-.83.79-1.64,1.6-2.44,2.43-.9.93-.91,2.17-.07,2.99.81.8,2.04.78,2.94-.08.81-.77,1.62-1.55,2.36-2.39.34-.39.51-.92.76-1.39Z"/>
  <path class="cls-1" d="M68.36,8c.44.13.9.23,1.32.41,2.52,1.04,4.06,2.88,4.29,5.62.19,2.24.3,4.51-1.21,6.53,1.85.66,3.45,1.58,4.77,2.93,2.23,2.27,3.42,4.98,3.5,8.17.01.58.01,1.15,0,1.73-.01,1.35-.6,1.93-1.98,1.93-3.62,0-7.23,0-10.85,0-.98,0-1.97,0-2.95,0-.05.11-.11.18-.12.25-.17,1.85-.55,2.2-2.41,2.2-1.59,0-3.18,0-4.77,0-1.18,0-1.94-.66-1.94-1.65,0-1,.73-1.63,1.94-1.63,1.25,0,2.51,0,3.75,0,.55-4.78-3.95-10.26-9.81-9.86,0,.67.01,1.35,0,2.02-.02,1.07-.68,1.77-1.64,1.77-.96,0-1.61-.7-1.64-1.77-.01-.66,0-1.31,0-1.96-5.27-.66-10.39,4.62-9.81,9.81,1.24,0,2.5,0,3.75,0,1.21,0,1.94.64,1.94,1.64,0,1-.75,1.64-1.95,1.65-1.67,0-3.34,0-5.01,0-1.55,0-2.04-.47-2.14-2.04,0-.11-.03-.21-.07-.41h-.88c-4.19,0-8.38,0-12.58,0-1.97,0-2.33-.42-2.4-2.43-.1-3.16.67-6.02,2.69-8.49,1.46-1.78,3.29-3.03,5.59-3.82-1.43-1.95-1.38-4.17-1.22-6.39.22-3.06,2.25-5.35,5.26-6.04.13-.03.25-.1.38-.15.66,0,1.32,0,1.97,0,.2.07.4.14.61.2,2.08.58,3.67,1.81,4.44,3.82.91,2.37.83,4.83.03,7.24-.15.45-.42.86-.58,1.18,1.19.69,2.32,1.35,3.45,2,.15.08.37.17.51.12.65-.25,1.29-.54,1.73-.73-.4-1.28-.91-2.47-1.12-3.71-.19-1.12-.09-2.3-.05-3.44.08-1.9.9-3.47,2.26-4.77,1.09-1.04,2.44-1.53,3.85-1.9.66,0,1.32,0,1.97,0,.18.06.36.13.54.17,3.15.71,5.42,3.35,5.58,6.59.12,2.43.24,4.89-1.44,6.97.72.3,1.32.56,1.93.79.15.06.37.04.51-.03,1.18-.67,2.34-1.36,3.56-2.07-1.31-1.71-1.19-3.79-1.15-5.85.06-3.09,2.09-5.63,5.08-6.39.18-.05.35-.12.53-.18.66,0,1.32,0,1.97,0ZM31.46,23.35c-4.7-.18-9.05,4.2-8.6,8.63h12.72c.53-2.84,1.83-5.25,3.95-7.28-1.46-.96-2.99-1.38-4.7-1.37-.14,1.32.32,3.08-1.7,3.08-2.04,0-1.53-1.78-1.68-3.06ZM77.68,31.98c.36-4.33-3.76-8.92-8.64-8.58,0,.42,0,.86,0,1.29-.03,1.09-.65,1.76-1.63,1.76-.96,0-1.61-.68-1.65-1.76-.02-.45,0-.9,0-1.39-1.78.04-3.31.43-4.74,1.39,2.12,2.03,3.42,4.44,3.95,7.28h12.72ZM46.38,16.23s.05,0,.07,0c0,.49-.03.99,0,1.48.16,1.99,1.77,3.48,3.77,3.51,2.02.03,3.72-1.48,3.86-3.49.07-.98.07-1.97,0-2.95-.13-1.84-1.64-3.31-3.47-3.47-1.86-.16-3.65,1.08-4.06,2.89-.15.66-.12,1.36-.17,2.04ZM36.47,15.63c0-.38.01-.77,0-1.15-.07-1.72-1.44-3.1-3.14-3.19-1.72-.09-3.27,1.12-3.46,2.82-.11,1-.11,2.02,0,3.02.18,1.75,1.73,2.96,3.5,2.86,1.7-.1,3.04-1.49,3.11-3.22.01-.38,0-.77,0-1.15ZM64.07,15.66c0,.38-.01.77,0,1.15.07,1.73,1.43,3.11,3.13,3.2,1.77.09,3.3-1.13,3.48-2.89.1-.97.1-1.97,0-2.94-.18-1.75-1.74-2.98-3.49-2.88-1.71.1-3.05,1.49-3.12,3.22-.01.38,0,.77,0,1.15Z"/>
  <path class="cls-1" d="M51.91,36.07c.02.9-.74,1.68-1.64,1.68-.86,0-1.61-.74-1.64-1.61-.02-.88.68-1.63,1.56-1.67.92-.04,1.7.68,1.72,1.59Z"/>
</svg>