<?xml version="1.0" encoding="UTF-8"?>
<svg id="Camada_1" data-name="Camada 1" xmlns="http://www.w3.org/2000/svg" viewBox="0 0 100 100">
  <defs>
    <style>
      .cls-1 {
        fill: #030349;
        stroke-width: 0px;
      }
    </style>
  </defs>
  <path class="cls-1" d="M40.42,65.89c.45,0,.78,0,1.1,0,6.94,0,13.87,0,20.81,0,1.35,0,1.78.42,1.78,1.76,0,6.72,0,13.43,0,20.15,0,1.35-.42,1.78-1.75,1.78-15.49,0-30.98,0-46.47,0-1.38,0-1.79-.42-1.79-1.83,0-13.71,0-27.42,0-41.12,0-1.39.41-1.8,1.82-1.8,7.57,0,15.13,0,22.7,0,1.39,0,1.8.41,1.8,1.82,0,6.09,0,12.17,0,18.26v.98ZM37.72,65.85v-18.35h-5.2c0,.31,0,.57,0,.84,0,1.84,0,3.67,0,5.51,0,.98-.5,1.49-1.46,1.5-2.55.02-5.1.02-7.65,0-.91,0-1.4-.52-1.42-1.45-.02-1.4,0-2.8,0-4.19,0-.73,0-1.46,0-2.18h-5.22v18.33h20.95ZM32.52,68.54c0,2.15,0,4.23,0,6.31,0,1.08-.48,1.56-1.55,1.57-2.47.01-4.93,0-7.4,0-1.08,0-1.56-.48-1.57-1.55-.01-1.37,0-2.74,0-4.11,0-.73,0-1.46,0-2.16h-5.22v18.3h20.94v-18.35h-5.2ZM40.46,86.89h20.98v-18.32h-5.23c0,2.13,0,4.21,0,6.28,0,1.04-.48,1.55-1.48,1.56-2.52.01-5.04.01-7.57,0-.97,0-1.47-.5-1.48-1.48-.02-1.86,0-3.73,0-5.59,0-.26-.02-.52-.04-.78h-5.19v18.33ZM24.66,47.49v5.19h5.17v-5.19h-5.17ZM24.66,73.73h5.16v-5.17h-5.16v5.17ZM48.35,73.73h5.16v-5.17h-5.16v5.17Z"/>
  <path class="cls-1" d="M66.78,18.5v2.63c2.03,0,4.03,0,6.02,0,1.42,0,1.83.41,1.83,1.79,0,7.05,0,14.09,0,21.14,0,.22,0,.43,0,.71h-2.62v-20.96h-31.56v18.34h-2.66c0-.3,0-.56,0-.83,0-6.11,0-12.23,0-18.34,0-1.45.4-1.84,1.86-1.84,1.97,0,3.94,0,5.97,0v-2.59c-.26-.01-.53-.04-.79-.04-2.14,0-4.28,0-6.41,0-2.3,0-3.26.94-3.26,3.22,0,6.5,0,13,0,19.49v.93h-2.63v-.85c0-6.61,0-13.22,0-19.82,0-3.4,2.21-5.61,5.61-5.61,3.81,0,7.62,0,11.43,0,.3,0,.6,0,1,0-.29-1.18-.56-2.29-.83-3.4-.28-1.17.26-1.86,1.47-1.86,3.34,0,6.69-.01,10.03,0,1.2,0,1.72.71,1.44,1.89-.26,1.09-.53,2.18-.82,3.37.36,0,.65,0,.94,0,3.84,0,7.68,0,11.51,0,3.35,0,5.58,2.22,5.58,5.56,0,7.1,0,14.2,0,21.3v.72h-2.63v-.94c0-6.96,0-13.93,0-20.89,0-2.11-1-3.11-3.13-3.11-2.43,0-4.87,0-7.36,0ZM52.65,13.27c.26,1.03.5,2,.74,2.98.41,1.66-.04,2.25-1.74,2.25-1.09,0-2.18,0-3.29,0v2.58h15.67v-2.58c-1.27,0-2.48.01-3.68,0-1.15-.02-1.68-.72-1.42-1.85.26-1.11.54-2.22.83-3.38h-7.12Z"/>
  <path class="cls-1" d="M71.53,59.75c2.84-.85,5.56-1.67,8.3-2.46.61-.17.84-.44.77-1.09-.07-.59-.02-1.19-.02-1.9-2.25.67-4.34,1.28-6.43,1.91-7.15,2.14-14.31,4.3-21.47,6.4-.7.21-1.51.22-2.24.13-1.6-.2-3.2-.48-4.77-.84-.46-.11-1.05-.52-1.18-.92-.13-.4.12-1.1.44-1.43,1.28-1.31,2.64-2.55,4-3.78.27-.25.63-.44.99-.55,11.55-3.47,23.11-6.93,34.67-10.38,2.11-.63,4.01.1,4.93,1.86.87,1.67.47,3.75-1.03,4.88-.53.4-1.2.65-1.83.88-.95.34-1.93.63-2.91.87-.49.12-.66.33-.62.84.09,1.15.11,2.3.17,3.45.04.77-.2,1.38-.96,1.62-3.32,1.01-6.65,2-10.05,3.01-.25-.84-.49-1.64-.75-2.52ZM59.93,57.72c.69-.2,1.29-.37,1.88-.55,5.92-1.77,11.84-3.53,17.76-5.32.3-.09.74-.39.76-.62.05-.74-.06-1.5-.11-2.31-7.08,2.12-14.05,4.21-21.04,6.31.26.88.49,1.63.76,2.5ZM56.64,55.97c-1.66.49-3.19,1.04-4.76,1.39-1.47.32-2.25,1.43-3.34,2.38,1.57.35,2.96.68,4.45.09,1.41-.56,2.9-.9,4.4-1.35-.27-.88-.5-1.65-.76-2.5ZM83,50.84c1.27-.39,2.45-.71,3.59-1.14.68-.26.89-.9.67-1.57-.22-.68-.78-1.01-1.49-.84-.98.23-1.93.55-2.93.84.05.91.1,1.75.16,2.71Z"/>
  <path class="cls-1" d="M66.75,80.36v-2.63c.3,0,.59,0,.88,0,2.25,0,4.49,0,6.74,0,1.84,0,2.9-1.07,2.9-2.92,0-3.53,0-7.07,0-10.6,0-.29,0-.59,0-.92h2.59c.01.26.04.52.04.79,0,3.56,0,7.12,0,10.68,0,3.39-2.22,5.6-5.61,5.6-2.49,0-4.97,0-7.53,0Z"/>
  <path class="cls-1" d="M50.94,30.34c0,.85.02,1.7,0,2.55-.03.88-.52,1.38-1.39,1.4-1.7.02-3.4.02-5.1,0-.88-.01-1.38-.51-1.39-1.39-.02-1.7-.02-3.4,0-5.1.01-.88.51-1.38,1.39-1.39,1.7-.02,3.4-.02,5.1,0,.88.01,1.37.51,1.4,1.39.03.85,0,1.7,0,2.55ZM45.75,29.06v2.56h2.52v-2.56h-2.52Z"/>
  <path class="cls-1" d="M50.94,42.21c0,.8,0,1.59,0,2.39-.02,1.03-.49,1.53-1.5,1.54-1.64.02-3.29.02-4.93,0-.96-.01-1.45-.52-1.46-1.49-.01-1.64-.02-3.29,0-4.94.01-.96.51-1.45,1.49-1.46,1.64-.01,3.29-.02,4.93,0,.96.01,1.44.51,1.46,1.49.02.82,0,1.64,0,2.47ZM48.27,43.47v-2.54h-2.53v2.54h2.53Z"/>
  <path class="cls-1" d="M69.33,31.72v2.53h-15.69v-2.53h15.69Z"/>
  <path class="cls-1" d="M69.33,43.57v2.53h-15.69v-2.53h15.69Z"/>
  <path class="cls-1" d="M66.75,75.09v-2.58h5.22v-7.89h2.66c0,1.49,0,2.96,0,4.43,0,1.53.01,3.07,0,4.6,0,.86-.47,1.42-1.26,1.43-2.18.03-4.36.01-6.62.01Z"/>
  <path class="cls-1" d="M58.88,28.97v-2.53h10.42v2.53h-10.42Z"/>
  <path class="cls-1" d="M58.88,40.82v-2.53h10.42v2.53h-10.42Z"/>
  <path class="cls-1" d="M53.62,28.98v-2.52h2.54v2.52h-2.54Z"/>
  <path class="cls-1" d="M56.15,40.84h-2.52v-2.56h2.52v2.56Z"/>
  <path class="cls-1" d="M35.09,63.22h-2.53v-2.53h2.53v2.53Z"/>
  <path class="cls-1" d="M32.57,81.72h2.53v2.54h-2.53v-2.54Z"/>
  <path class="cls-1" d="M56.26,81.7h2.52v2.56h-2.52v-2.56Z"/>
</svg>