<?xml version="1.0" encoding="UTF-8"?>
<svg id="Camada_1" data-name="Camada 1" xmlns="http://www.w3.org/2000/svg" viewBox="0 0 100 100">
  <defs>
    <style>
      .cls-1 {
        fill: #030349;
        stroke-width: 0px;
      }
    </style>
  </defs>
  <path class="cls-1" d="M95,39.72c-.32,1.46-.73,2.88-1.66,4.09-1.82,2.39-4.26,3.45-7.22,3.45-11.14,0-22.28,0-33.42,0-6.84,0-13.68,0-20.52,0-2.81,0-4.9,1.48-5.67,3.95-.99,3.18.96,6.49,4.24,7.13.57.11,1.16.13,1.74.14,8.98,0,17.95,0,26.93,0,2.31,0,4.39.61,6.11,2.2,2.33,2.16,3.25,4.86,2.59,7.94-.64,3.04-2.49,5.2-5.49,6.17-1.09.35-2.29.51-3.44.51-15.03.03-30.06.02-45.08.02-2.96,0-5.06,1.43-5.85,3.96-.99,3.18.96,6.49,4.24,7.13.57.11,1.16.13,1.74.13,22.25,0,44.5,0,66.75,0h1.03c-.7-.91-1.31-1.68-1.88-2.47-2.02-2.82-3.79-5.77-4.5-9.22-.66-3.2-.27-6.3,1.32-9.17,1.8-3.24,5.58-4.9,9.54-4.34,4.79.69,7.71,3.72,8.33,8.65.03.25.11.5.17.75v3.16c-.58,1.7-1.01,3.47-1.76,5.1-1.69,3.67-4.15,6.83-6.93,9.74-.31.32-.86.42-1.31.59-.15.06-.35.01-.52.01-23.45,0-46.9,0-70.35,0-3.61,0-6.36-1.48-8.07-4.73-2.58-4.9.79-11.33,6.29-11.97.75-.09,1.51-.14,2.27-.14,14.94,0,29.88,0,44.83,0,2.28,0,4.13-.8,5.29-2.81,2.02-3.51-.12-7.8-4.13-8.35-.46-.06-.93-.06-1.4-.06-8.98,0-17.95,0-26.93,0-3.62,0-6.34-1.55-8.01-4.82-2.49-4.84.88-11.24,6.27-11.87.81-.09,1.63-.15,2.45-.15,17.69,0,35.38,0,53.07,0,2.97,0,5.07-1.42,5.86-3.94,1-3.19-.94-6.5-4.22-7.14-.62-.12-1.28-.14-1.92-.14-23.31,0-46.61-.01-69.92.01-1.06,0-1.81-.32-2.51-1.12-2.97-3.34-5.62-6.88-7.24-11.09-1.17-3.03-1.22-6.11-.3-9.2,1.56-5.26,5.95-7.17,10.57-6.58,4.8.61,7.64,3.79,8.3,8.68.63,4.64-1.08,8.54-3.46,12.28-.89,1.4-1.93,2.71-2.95,4.13h26.85q-.4-1.32-1.74-1.32c-.96,0-1.93.02-2.89,0-1.08-.02-1.6-.55-1.62-1.64-.02-1.28,0-2.57,0-3.95h-5.57v-2.79h5.51v-2.82h-2.68v-2.82h2.74c0-2.37,0-4.64,0-6.91,0-.38,0-.76,0-1.14.02-1.29.51-1.78,1.83-1.79,1.67,0,3.33,0,5,0,5.47,0,10.94,0,16.4,0,1.6,0,2.03.43,2.03,2.02,0,1.11,0,2.22.01,3.33,0,.05.04.1.09.26,1.62,0,3.28,0,4.94,0,1.32,0,1.61.2,2.1,1.41.67,1.68,1.35,3.36,2,5.05.16.41.37.59.82.57.82-.04,1.64-.03,2.46,0,1.08.03,1.61.55,1.62,1.64.02,2.63.01,5.26,0,7.9,0,1.14-.53,1.66-1.66,1.68-.94.02-1.88.07-2.81-.01-1.03-.1-1.69.17-1.77,1.38.27.01.57.04.87.04,4.47,0,8.95-.02,13.42,0,3.62.02,6.35,1.59,7.96,4.88.4.82.56,1.77.83,2.66v1.75ZM41.72,8v18.19h2.89c.11-.27.22-.53.34-.8.99-2.09,2.64-3.27,4.94-3.36,2.22-.08,4.06.87,5.02,2.88.54,1.13,1.17,1.44,2.3,1.32.81-.09,1.63-.02,2.45-.02h1.6V8h-19.54ZM14.98,29.73c2.11-2.36,3.93-4.79,5.32-7.51,1.28-2.49,2.01-5.07,1.57-7.92-.61-3.95-2.76-6.13-6.5-6.31-2.43-.11-4.61.55-5.97,2.75-1.5,2.43-1.79,5.11-1.1,7.84,1.1,4.34,3.78,7.76,6.67,11.15ZM85.26,86.01c1.47-2.03,2.97-3.9,4.23-5.91,2.06-3.26,3.37-6.73,2.34-10.7-.59-2.28-1.73-4.11-4.08-4.85-2.62-.82-5.2-.7-7.29,1.3-2.22,2.12-2.61,4.97-2.18,7.79.75,4.87,3.77,8.55,6.98,12.37ZM75.31,20.59c-.86,0-1.62-.03-2.38,0-.96.05-1.52-.38-1.85-1.27-.65-1.72-1.35-3.42-2.06-5.12-.1-.25-.37-.6-.58-.61-1.42-.05-2.84-.03-4.27-.03v9.08c3.79-1.4,6.38-.36,8.04,3.15.08.17.31.38.48.39.86.04,1.73.02,2.61.02v-5.61ZM52.88,27.57c-.02-1.52-1.29-2.77-2.82-2.76-1.52,0-2.78,1.27-2.79,2.8,0,1.56,1.3,2.84,2.86,2.81,1.52-.03,2.76-1.32,2.74-2.84ZM66.89,24.81c-1.52.02-2.77,1.29-2.76,2.82,0,1.52,1.27,2.78,2.8,2.79,1.56,0,2.84-1.3,2.81-2.86-.03-1.52-1.32-2.76-2.84-2.74ZM55.05,30.36h6.9c-.12-1.12-.69-1.47-1.76-1.37-1.13.1-2.27.02-3.41.02q-1.32,0-1.74,1.35Z"/>
  <path class="cls-1" d="M80.96,95v-2.75h2.81v2.75h-2.81Z"/>
  <path class="cls-1" d="M86.58,95v-2.75h2.81v2.75h-2.81Z"/>
  <path class="cls-1" d="M92.19,95v-2.81h2.81v2.81h-2.81Z"/>
  <path class="cls-1" d="M15.03,10.77c2.29.03,4.17,1.94,4.16,4.23-.01,2.32-1.97,4.23-4.29,4.18-2.29-.05-4.16-1.99-4.12-4.27.04-2.29,1.96-4.16,4.25-4.14ZM13.6,14.91c-.04.73.6,1.43,1.34,1.46.7.03,1.37-.57,1.43-1.28.07-.73-.55-1.44-1.3-1.5-.73-.05-1.44.58-1.48,1.32Z"/>
  <path class="cls-1" d="M85.17,75.34c-2.29,0-4.19-1.9-4.2-4.19,0-2.32,1.94-4.25,4.26-4.22,2.29.03,4.17,1.95,4.15,4.24-.02,2.29-1.93,4.18-4.21,4.17ZM85.16,72.52c.74,0,1.41-.66,1.4-1.4,0-.71-.63-1.35-1.34-1.38-.74-.03-1.42.61-1.44,1.36-.02.74.64,1.42,1.38,1.42Z"/>
</svg>