<?xml version="1.0" encoding="UTF-8"?>
<svg id="Camada_1" data-name="Camada 1" xmlns="http://www.w3.org/2000/svg" viewBox="0 0 100 100">
  <defs>
    <style>
      .cls-1 {
        fill: #030349;
        stroke-width: 0px;
      }
    </style>
  </defs>
  <path class="cls-1" d="M68.06,65.42c.75,1.6.59,3.09-.5,4.52,1.28,1.75,1.33,3.52-.01,5.29.74.97,1.13,2.03.93,3.24-.31,1.86-1.73,3.28-3.66,3.3-5.51.05-11.02.03-16.52-.06-2.07-.03-3.95-.84-5.66-2-.58-.39-1.15-.54-1.83-.53-2.88.03-5.76.01-8.63.01-1.39,0-1.8-.42-1.8-1.83,0-5.78,0-11.57,0-17.35,0-1.5.37-1.87,1.91-1.87,2.96,0,5.92.02,8.88-.02.46,0,.98-.15,1.37-.4,2.83-1.81,4.24-4.48,4.61-7.77.09-.79.21-1.57.33-2.36.14-.91.56-1.27,1.5-1.29.9-.02,1.81-.02,2.71.02,2.76.12,4.95,2.34,4.99,5.12.04,2.19,0,4.38,0,6.7.34,0,.63,0,.92,0,2.82,0,5.65-.03,8.47.03,1.7.03,2.9.95,3.5,2.53.61,1.59.22,3.01-.95,4.23-.17.17-.36.33-.56.51ZM49.96,48.91c-.07.38-.14.67-.17.96-.4,4.29-2.25,7.73-5.9,10.13-.2.13-.34.48-.35.73-.02,5.29-.02,10.58,0,15.87,0,.28.22.67.46.83,1.71,1.21,3.64,1.74,5.72,1.74,4.71,0,9.43,0,14.14,0,1.32,0,1.93-.36,2.02-1.19.08-.76-.32-1.13-1.58-1.49-.66-.19-1.05-.62-1.02-1.31.02-.68.41-1.11,1.09-1.24.16-.03.33-.04.48-.08.66-.18,1.04-.62,1.02-1.31-.03-.68-.41-1.11-1.1-1.24-.16-.03-.33-.04-.48-.08-.66-.19-1.04-.63-1.01-1.31.03-.68.42-1.11,1.1-1.23.24-.05.57-.02.7-.17.32-.37.69-.79.76-1.24.09-.58-.34-1.01-.92-1.19-.18-.06-.38-.05-.57-.09-.7-.17-1.09-.61-1.09-1.34,0-.69.53-1.18,1.28-1.23.52-.04,1.05.02,1.56-.07.71-.12,1.12-.61,1.07-1.34-.04-.72-.47-1.15-1.2-1.22-.27-.03-.55-.02-.82-.02-3.1,0-6.19,0-9.29,0-1.4,0-1.82-.42-1.82-1.81,0-2.41,0-4.82,0-7.24,0-1.69-1.07-2.75-2.77-2.79-.41,0-.82,0-1.32,0ZM40.85,76.5v-15.68h-7.8v15.68h7.8Z"/>
  <path class="cls-1" d="M60.63,28.25c-.02.68-.36,1.33-1.03,1.81-1.04.76-2.07,1.53-3.13,2.26-.37.26-.48.49-.31.95.43,1.18.8,2.39,1.17,3.59.36,1.16.05,2.16-.81,2.78-.86.62-1.9.59-2.9-.13-1.03-.73-2.05-1.46-3.05-2.23-.34-.26-.58-.26-.93,0-.98.75-1.98,1.46-2.99,2.18-1.05.75-2.09.81-2.97.18-.89-.64-1.18-1.65-.79-2.86.37-1.17.73-2.35,1.15-3.51.16-.45.08-.69-.3-.95-1.01-.7-2-1.43-3-2.17-1.04-.77-1.39-1.73-1.04-2.77.36-1.05,1.2-1.6,2.5-1.61,1.23-.01,2.47-.02,3.7,0,.43,0,.63-.13.75-.55.36-1.21.76-2.4,1.16-3.59.39-1.15,1.22-1.8,2.28-1.8,1.07,0,1.9.64,2.29,1.79.39,1.17.79,2.33,1.13,3.51.14.48.35.65.85.64,1.29-.04,2.58-.04,3.86,0,1.39.04,2.38,1.02,2.39,2.46ZM43.1,28.41c-.02.06-.03.12-.05.17,1.06.77,2.12,1.54,3.18,2.31.91.67,1.01,1.02.67,2.11-.4,1.26-.81,2.51-1.28,3.97,1.18-.85,2.18-1.57,3.17-2.29,1.22-.88,1.42-.88,2.67.02.99.71,1.97,1.42,3.13,2.26-.47-1.46-.87-2.7-1.27-3.94-.36-1.13-.26-1.44.72-2.16,1.05-.77,2.1-1.53,3.15-2.3-1.41-.15-2.77-.18-4.12-.15-.88.02-1.38-.37-1.63-1.18-.31-1.02-.65-2.03-.99-3.04-.09-.26-.19-.51-.36-.98-.49,1.53-.91,2.8-1.32,4.08-.25.78-.74,1.15-1.58,1.13-1.36-.03-2.72,0-4.08,0Z"/>
  <path class="cls-1" d="M75.43,40.13c.36,1.13.71,2.17,1.02,3.22.28.94,0,1.81-.7,2.35-.76.58-1.68.62-2.52.05-.77-.52-1.53-1.06-2.26-1.64-.4-.31-.68-.3-1.06.02-.66.53-1.36,1.01-2.06,1.5-.94.66-1.86.7-2.66.11-.79-.58-1.04-1.48-.71-2.57.26-.84.51-1.68.82-2.49.16-.42.06-.65-.29-.89-.72-.5-1.43-1.01-2.13-1.54-.93-.7-1.24-1.54-.93-2.5.3-.94,1.06-1.44,2.22-1.45.88,0,1.75-.02,2.63,0,.43.02.63-.14.75-.55.25-.87.54-1.72.83-2.58.35-1.02,1.11-1.6,2.04-1.62.94-.01,1.71.57,2.07,1.58.31.88.55,1.78.89,2.64.09.22.43.47.67.49.93.06,1.86.01,2.79.03,1.05.02,1.77.51,2.08,1.42.32.92.04,1.79-.82,2.46-.43.34-.88.65-1.33.97-.44.32-.88.65-1.35.99ZM67.5,42.42l.16.09c.6-.43,1.2-.85,1.78-1.3.69-.53,1.34-.51,2.02,0,.59.45,1.2.87,1.8,1.31-.11-.83-.34-1.55-.58-2.28-.25-.77-.08-1.38.62-1.85.62-.42,1.22-.88,1.82-1.32-.76-.16-1.46-.15-2.16-.16-1.09,0-1.44-.27-1.78-1.32-.23-.69-.45-1.38-.73-2.24-.29.88-.52,1.55-.74,2.22-.37,1.1-.69,1.33-1.84,1.34-.68,0-1.36,0-2.05,0,.58.62,1.17,1.06,1.78,1.48.67.47.89,1.06.61,1.85-.25.71-.47,1.44-.7,2.16Z"/>
  <path class="cls-1" d="M85.95,57.24c.32.99.64,1.95.95,2.91.38,1.19.13,2.13-.7,2.72-.83.58-1.73.52-2.73-.2-.64-.46-1.3-.91-1.92-1.41-.4-.33-.71-.37-1.13-.02-.65.54-1.36,1.02-2.06,1.5-.95.66-1.86.69-2.66.09-.79-.59-1.03-1.48-.69-2.58.25-.81.48-1.63.8-2.41.2-.5.05-.74-.35-1.01-.72-.49-1.43-1.01-2.13-1.54-.87-.67-1.16-1.52-.85-2.45.3-.91,1.06-1.43,2.15-1.44,1.01-.01,2.03,0,3.04-.01.05,0,.11-.02.23-.05.32-.98.65-1.99.99-2.99.37-1.08,1.11-1.68,2.08-1.68.96,0,1.71.59,2.08,1.67.28.8.56,1.6.78,2.42.14.52.4.68.93.65.9-.04,1.81-.03,2.71,0,.98.02,1.69.55,1.99,1.43.3.87.06,1.75-.71,2.35-.9.7-1.84,1.36-2.79,2.06ZM80.97,50.48c-.29.87-.52,1.54-.74,2.22-.36,1.1-.69,1.33-1.85,1.34-.68,0-1.36,0-2.04,0,.54.59,1.09.99,1.64,1.39.91.66,1.03,1.04.69,2.1-.21.67-.43,1.34-.65,2.02.74-.34,1.31-.76,1.89-1.17.84-.61,1.29-.61,2.15,0,.58.42,1.15.84,1.73,1.26-.11-.84-.34-1.56-.57-2.28-.25-.77-.07-1.38.63-1.85.62-.42,1.21-.88,1.82-1.32-.74-.15-1.41-.15-2.09-.16-1.2,0-1.5-.23-1.89-1.4-.21-.65-.43-1.29-.71-2.16Z"/>
  <path class="cls-1" d="M24.11,57.24c.36,1.13.71,2.17,1.02,3.21.29.97-.01,1.87-.76,2.4-.77.55-1.67.55-2.53-.04-.77-.53-1.52-1.07-2.26-1.64-.34-.27-.59-.25-.93,0-.71.55-1.45,1.08-2.19,1.59-.91.63-1.81.64-2.59.07-.77-.56-1.05-1.46-.74-2.49.26-.86.52-1.73.84-2.57.16-.42.07-.65-.28-.89-.72-.49-1.43-1.01-2.13-1.54-.94-.7-1.24-1.54-.94-2.49.3-.95,1.06-1.45,2.22-1.46.88,0,1.75-.02,2.63,0,.43.01.63-.13.75-.54.24-.84.53-1.67.81-2.5.37-1.09,1.09-1.69,2.06-1.7.96-.01,1.73.58,2.1,1.65.28.83.56,1.66.81,2.5.13.43.33.62.81.6.9-.04,1.81-.02,2.71,0,1.08.02,1.81.54,2.11,1.49.28.89,0,1.75-.84,2.38-.87.66-1.76,1.29-2.68,1.96ZM19.13,50.47c-.3.9-.53,1.6-.76,2.3-.33,1-.69,1.26-1.73,1.27-.71,0-1.43,0-2.14,0,.53.58,1.09.98,1.64,1.38.91.67,1.04,1.04.7,2.1-.22.68-.44,1.35-.66,2.03.76-.35,1.36-.77,1.94-1.22.68-.53,1.33-.53,2.02,0,.59.45,1.21.88,1.81,1.31-.11-.83-.34-1.55-.58-2.27-.25-.77-.09-1.39.61-1.85.62-.42,1.22-.88,1.83-1.32-.78-.16-1.51-.18-2.23-.15-.89.03-1.44-.37-1.69-1.23-.21-.73-.46-1.44-.76-2.34Z"/>
  <path class="cls-1" d="M25.79,46.26c-1.43-.12-2.44-1.42-2.07-2.77.24-.9.53-1.78.86-2.65.19-.51.16-.83-.35-1.14-.74-.46-1.43-1-2.13-1.54-.84-.64-1.12-1.5-.83-2.38.31-.95,1.03-1.47,2.12-1.48.88-.01,1.75-.04,2.63,0,.55.03.77-.18.91-.68.23-.84.52-1.67.81-2.5.35-1,1.14-1.58,2.08-1.56.91.02,1.67.58,2.01,1.55.31.88.6,1.76.85,2.65.12.42.33.55.76.54.93-.03,1.86-.02,2.79,0,.98.02,1.72.54,2.03,1.39.32.89.07,1.78-.73,2.42-.71.56-1.43,1.11-2.19,1.59-.5.32-.56.63-.36,1.15.3.76.53,1.55.78,2.33.33,1.08.07,2-.73,2.57-.8.58-1.71.54-2.66-.13-.72-.51-1.43-1.01-2.12-1.55-.34-.27-.6-.26-.93,0-.69.54-1.39,1.07-2.13,1.54-.42.27-.92.43-1.38.65ZM26.75,42.68c.81-.59,1.44-1.01,2.04-1.48.66-.51,1.29-.51,1.95-.02.61.45,1.23.89,2.06,1.49-.3-.92-.53-1.61-.75-2.31-.32-1.03-.21-1.37.68-2.03.57-.42,1.13-.85,1.89-1.42-.98,0-1.69-.02-2.4,0-.89.03-1.45-.36-1.7-1.22-.21-.72-.46-1.43-.77-2.34-.28.86-.5,1.53-.72,2.2-.36,1.1-.69,1.35-1.84,1.36-.69,0-1.38,0-2.32,0,.81.59,1.38,1.05,1.99,1.45.72.48.91,1.11.64,1.92-.24.72-.46,1.44-.76,2.38Z"/>
</svg>