<?xml version="1.0" encoding="UTF-8"?>
<svg id="Camada_2" data-name="Camada 2" xmlns="http://www.w3.org/2000/svg" viewBox="0 0 516.82 102.05">
  <defs>
    <style>
      .cls-1 {
        letter-spacing: 0em;
      }

      .cls-2 {
        font-family: Montserrat-Medium, Montserrat;
        font-size: 87.45px;
        font-weight: 500;
      }

      .cls-2, .cls-3 {
        fill: #d86c00;
      }

      .cls-4 {
        fill: #030349;
        fill-rule: evenodd;
      }

      .cls-4, .cls-3 {
        stroke-width: 0px;
      }
    </style>
  </defs>
  <g id="Camada_1-2" data-name="Camada 1">
    <g>
      <path class="cls-4" d="M147.02,51.42c0,5.91-1.21,10.16-3.63,12.76-2.42,2.6-5.82,3.9-10.19,3.9s-7.77-1.3-10.19-3.9c-2.42-2.6-3.63-6.85-3.63-12.76V17.22h-14.35v34.74c0,9.1,2.48,16.1,7.44,21,4.96,4.9,11.84,7.35,20.65,7.35s15.68-2.45,20.65-7.35c4.96-4.9,7.44-11.9,7.44-21V17.22h-14.18v34.2Z"/>
      <path class="cls-4" d="M218.44,47.88c-2.13-1.3-4.47-2.33-7.04-3.1-2.57-.77-5.14-1.45-7.71-2.04-2.57-.59-4.92-1.18-7.04-1.77-2.13-.59-3.84-1.37-5.14-2.35-1.3-.97-1.95-2.26-1.95-3.85,0-1.36.38-2.55,1.15-3.59.77-1.03,2.04-1.87,3.81-2.53,1.77-.65,4.05-.97,6.82-.97s5.61.4,8.51,1.2c2.89.8,5.79,2.02,8.68,3.68l4.43-10.9c-2.9-1.83-6.23-3.2-10.01-4.12-3.78-.92-7.62-1.37-11.52-1.37-5.85,0-10.71.87-14.58,2.61-3.87,1.74-6.76,4.08-8.68,7-1.92,2.92-2.88,6.16-2.88,9.7,0,3.31.66,6.03,1.99,8.15,1.33,2.13,3.06,3.84,5.18,5.14,2.13,1.3,4.47,2.36,7.04,3.19,2.57.83,5.14,1.52,7.71,2.08,2.57.56,4.92,1.15,7.04,1.77,2.13.62,3.84,1.42,5.14,2.39,1.3.97,1.95,2.29,1.95,3.94,0,1.3-.41,2.45-1.24,3.46-.83,1.01-2.11,1.79-3.85,2.35-1.74.56-4.03.84-6.87.84-3.72,0-7.4-.6-11.03-1.82-3.63-1.21-6.78-2.76-9.44-4.65l-4.87,10.81c2.78,2.13,6.44,3.85,10.99,5.18,4.55,1.33,9.3,1.99,14.27,1.99,5.91,0,10.79-.89,14.66-2.66,3.87-1.77,6.78-4.11,8.73-7,1.95-2.89,2.92-6.08,2.92-9.57,0-3.25-.66-5.94-1.99-8.06-1.33-2.13-3.06-3.84-5.18-5.14Z"/>
      <polygon class="cls-4" points="253.26 53.37 282.06 53.37 282.06 42.21 253.26 42.21 253.26 28.74 285.87 28.74 285.87 17.22 239 17.22 239 79.24 287.02 79.24 287.02 67.73 253.26 67.73 253.26 53.37"/>
      <g>
        <path class="cls-4" d="M316.05,50.53c4.43,0,7.74-.96,9.92-2.88,2.18-1.92,3.28-4.56,3.28-7.93s-1.09-6.08-3.28-7.97c-2.19-1.89-5.49-2.84-9.92-2.84h-11.7v21.62h11.7Z"/>
        <path class="cls-4" d="M316.84,61.97h-12.49v17.28h25.08l-11.91-17.29c-.22,0-.44.01-.67.01Z"/>
        <path class="cls-4" d="M386.08,59.36s.08-.03.12-.05c4.02-1.77,7.12-4.33,9.3-7.66,2.19-3.34,3.28-7.31,3.28-11.92s-1.09-8.68-3.28-12.05c-2.19-3.37-5.29-5.95-9.3-7.75-4.02-1.8-8.8-2.7-14.35-2.7h-55c5.55,0,10.34.9,14.35,2.7,4.02,1.8,7.12,4.39,9.3,7.75,2.19,3.37,3.28,7.38,3.28,12.05s-1.09,8.58-3.28,11.92c-2.19,3.34-5.29,5.89-9.3,7.66-.04.02-.08.03-.12.05l13.86,19.89h14.42v-17.28h12.49c.23,0,.44-.01.67-.01l11.91,17.29h15.51l-13.86-19.89ZM380.97,47.65c-2.19,1.92-5.49,2.88-9.92,2.88h-11.7v-21.62h11.7c4.43,0,7.74.95,9.92,2.84,2.18,1.89,3.28,4.55,3.28,7.97s-1.09,6.01-3.28,7.93Z"/>
      </g>
      <text class="cls-2" transform="translate(400.09 79.05)"><tspan class="cls-1" x="0" y="0">E</tspan><tspan x="57.89" y="0">X</tspan></text>
      <path class="cls-4" d="M45,90c24.85,0,45-20.15,45-45,0-5.15-.88-10.08-2.47-14.69-.45-.23-4.38,3.46-6.07,5.08.81,3.07,1.24,6.29,1.24,9.61,0,20.83-16.88,37.71-37.71,37.71S7.29,65.83,7.29,45,24.17,7.29,45,7.29c11.92,0,22.54,5.54,29.45,14.17l4.75-5.69c-.19-.22-.38-.45-.58-.67-.18-.2-.36-.4-.54-.6-.34-.37-.68-.73-1.03-1.08-.16-.16-.31-.32-.47-.47-.39-.39-.79-.77-1.2-1.15-.1-.09-.2-.18-.3-.27C67.1,4.36,56.56,0,45,0,20.15,0,0,20.15,0,45s20.15,45,45,45Z"/>
      <g>
        <polygon class="cls-3" points="44.26 35.48 34.74 22.05 22.35 22.05 37.98 43.9 44.26 35.48"/>
        <polygon class="cls-3" points="51.56 44.8 67.99 22.05 57.06 22.05 22.33 69.17 34 69.17 45.17 52.81 56.54 69.17 69.13 69.17 51.56 44.8"/>
      </g>
    </g>
  </g>
</svg>